<svg xmlns="http://www.w3.org/2000/svg" xmlns:xlink="http://www.w3.org/1999/xlink" cache-id="f45e49d61a2c4b00887c9780288a79a5" id="eCwAH9WdaK71" viewBox="0 0 2093 1305" shape-rendering="geometricPrecision" text-rendering="geometricPrecision"><rect width="300" height="436.633077" rx="0" ry="0" transform="matrix(1 0-.249328 1-191.135147 0)" fill="rgba(0,0,0,0.1)" stroke-width="0"/><rect width="300" height="436.633077" rx="0" ry="0" transform="matrix(1 0-.249328 1-191.135147 435)" fill="rgba(0,0,0,0.16)" stroke-width="0"/><rect width="300" height="436.633077" rx="0" ry="0" transform="matrix(1 0-.249328 1-191.135147 870)" fill="rgba(0,0,0,0.13)" stroke-width="0"/><rect width="300" height="436.633077" rx="0" ry="0" transform="matrix(1 0-.249328 1 107.864853 0)" fill="rgba(0,0,0,0.13)" stroke-width="0"/><rect width="300" height="436.633077" rx="0" ry="0" transform="matrix(1 0-.249328 1 107.864853 435)" fill="rgba(0,0,0,0.1)" stroke-width="0"/><rect width="300" height="436.633077" rx="0" ry="0" transform="matrix(1 0-.249328 1 107.864853 870)" fill="rgba(0,0,0,0.16)" stroke-width="0"/><rect width="300" height="436.633077" rx="0" ry="0" transform="matrix(1 0-.249328 1 406.864853 0)" fill="rgba(0,0,0,0.12)" stroke-width="0"/><rect width="300" height="436.633077" rx="0" ry="0" transform="matrix(1 0-.249328 1 406.864853 435)" fill="rgba(0,0,0,0.14)" stroke-width="0"/><rect width="300" height="436.633077" rx="0" ry="0" transform="matrix(1 0-.249328 1 406.864853 870)" fill="rgba(0,0,0,0.12)" stroke-width="0"/><rect width="300" height="436.633077" rx="0" ry="0" transform="matrix(1 0-.249328 1 705.864853 0)" fill="rgba(0,0,0,0.14)" stroke-width="0"/><rect width="300" height="436.633077" rx="0" ry="0" transform="matrix(1 0-.249328 1 705.864853 435)" fill="rgba(0,0,0,0.11)" stroke-width="0"/><rect width="300" height="436.633077" rx="0" ry="0" transform="matrix(1 0-.249328 1 705.864853 870)" fill="rgba(0,0,0,0.1)" stroke-width="0"/><rect width="300" height="436.633077" rx="0" ry="0" transform="matrix(1 0-.249328 1 1004.864853 0)" fill="rgba(0,0,0,0.1)" stroke-width="0"/><rect width="300" height="436.633077" rx="0" ry="0" transform="matrix(1 0-.249328 1 1004.864853 435)" fill="rgba(0,0,0,0.16)" stroke-width="0"/><rect width="300" height="436.633077" rx="0" ry="0" transform="matrix(1 0-.249328 1 1004.864853 870)" fill="rgba(0,0,0,0.14)" stroke-width="0"/><rect width="300" height="436.633077" rx="0" ry="0" transform="matrix(1 0-.249328 1 1303.864853 0)" fill="rgba(0,0,0,0.13)" stroke-width="0"/><rect width="300" height="436.633077" rx="0" ry="0" transform="matrix(1 0-.249328 1 1303.864853 435)" fill="rgba(0,0,0,0.1)" stroke-width="0"/><rect width="300" height="436.633077" rx="0" ry="0" transform="matrix(1 0-.249328 1 1303.864853 870)" fill="rgba(0,0,0,0.16)" stroke-width="0"/><rect width="300" height="436.633077" rx="0" ry="0" transform="matrix(1 0-.249328 1 1602.864853 0)" fill="rgba(0,0,0,0.1)" stroke-width="0"/><rect width="300" height="436.633077" rx="0" ry="0" transform="matrix(1 0-.249328 1 1602.864853 435)" fill="rgba(0,0,0,0.12)" stroke-width="0"/><rect width="300" height="436.633077" rx="0" ry="0" transform="matrix(1 0-.249328 1 1602.864853 870)" fill="rgba(0,0,0,0.13)" stroke-width="0"/><rect width="300" height="436.633077" rx="0" ry="0" transform="matrix(1 0-.249328 1 1901.864853 0)" fill="rgba(0,0,0,0.1)" stroke-width="0"/><rect width="300" height="436.633077" rx="0" ry="0" transform="matrix(1 0-.249328 1 1901.864853 435)" fill="rgba(0,0,0,0.16)" stroke-width="0"/><rect width="300" height="436.633077" rx="0" ry="0" transform="matrix(1 0-.249328 1 1901.864853 870)" fill="rgba(0,0,0,0.13)" stroke-width="0"/></svg>